<?xml version="1.0" standalone="no"?>
<!DOCTYPE svg PUBLIC "-//W3C//DTD SVG 20010904//EN"
 "http://www.w3.org/TR/2001/REC-SVG-20010904/DTD/svg10.dtd">
<svg version="1.0" xmlns="http://www.w3.org/2000/svg"
 width="211.000000pt" height="211.000000pt" viewBox="0 0 211.000000 211.000000"
 preserveAspectRatio="xMidYMid meet">
<g transform="translate(0.000000,211.000000) scale(0.100000,-0.100000)"
fill="#000000" stroke="none">
<path d="M0 1055 l0 -1055 1055 0 1055 0 0 1055 0 1055 -1055 0 -1055 0 0
-1055z m680 705 l0 -330 -330 0 -330 0 0 330 0 330 330 0 330 0 0 -330z m710
0 l0 -330 -335 0 -335 0 0 330 0 330 335 0 335 0 0 -330z m690 0 l0 -330 -325
0 -325 0 0 330 0 330 325 0 325 0 0 -330z m-1400 -705 l0 -335 -330 0 -330 0
0 335 0 335 330 0 330 0 0 -335z m710 0 l0 -335 -335 0 -335 0 0 335 0 335
335 0 335 0 0 -335z m690 0 l0 -335 -325 0 -325 0 0 335 0 335 325 0 325 0 0
-335z m-1400 -700 l0 -325 -330 0 -330 0 0 325 0 325 330 0 330 0 0 -325z
m710 0 l0 -325 -335 0 -335 0 0 325 0 325 335 0 335 0 0 -325z m690 0 l0 -325
-325 0 -325 0 0 325 0 325 325 0 325 0 0 -325z"/>
</g>
</svg>
